<svg xmlns="http://www.w3.org/2000/svg" xmlns:xlink="http://www.w3.org/1999/xlink" width="1577" height="384.632" viewBox="0 0 1577 384.632">
  <defs>
    <linearGradient id="linear-gradient" x1="0.923" y1="0.406" x2="0.093" y2="0.607" gradientUnits="objectBoundingBox">
      <stop offset="0" stop-color="#034ea2"/>
      <stop offset="0.159" stop-color="#303a99"/>
      <stop offset="0.238" stop-color="#5e2390"/>
      <stop offset="0.427" stop-color="#8b0d88"/>
      <stop offset="0.716" stop-color="#c00384"/>
      <stop offset="1" stop-color="#f10080"/>
    </linearGradient>
    <clipPath id="clip-path">
      <path id="Caminho_11" data-name="Caminho 11" d="M0,.064H1577V384.7H0Zm0,0" fill="url(#linear-gradient)"/>
    </clipPath>
    <clipPath id="clip-path-2">
      <path id="Caminho_10" data-name="Caminho 10" d="M0,96.446H1577V384.7H0Zm0,0" fill="url(#linear-gradient)"/>
    </clipPath>
    <clipPath id="clip-path-3">
      <path id="Caminho_9" data-name="Caminho 9" d="M1958.568,338.616,563.6,1349.869-381.256,46.484,1013.712-964.764Zm0,0" fill="url(#linear-gradient)"/>
    </clipPath>
    <clipPath id="clip-path-5">
      <path id="Caminho_7" data-name="Caminho 7" d="M-179.205,218.175c8.3,114.193,672.034,450.16,893.331,503.69,262.181,63.332,576.552,61.489,810.845-94.623C1957.2,339.1,1341.732-74.066,874.117,172.055,469.767,384.787-201.2-84.419-179.205,218.175Zm0,0" fill="url(#linear-gradient)"/>
    </clipPath>
  </defs>
  <g id="Grupo_12" data-name="Grupo 12" transform="translate(-124 -630.184)">
    <g id="surface1" transform="translate(124 630.12)">
      <g id="Grupo_11" data-name="Grupo 11" clip-path="url(#clip-path)">
        <g id="Grupo_10" data-name="Grupo 10">
          <g id="Grupo_9" data-name="Grupo 9" clip-path="url(#clip-path-2)">
            <g id="Grupo_8" data-name="Grupo 8" clip-path="url(#clip-path-3)">
              <g id="Grupo_7" data-name="Grupo 7" clip-path="url(#clip-path-3)">
                <g id="Grupo_6" data-name="Grupo 6" clip-path="url(#clip-path-5)">
                  <path id="Caminho_6" data-name="Caminho 6" d="M-182.777,132.561,1033.751-749.326,1759.776,252.2,543.252,1134.086Zm0,0" fill="url(#linear-gradient)"/>
                </g>
              </g>
            </g>
          </g>
        </g>
      </g>
    </g>
  </g>
</svg>
