<svg xmlns="http://www.w3.org/2000/svg" xmlns:xlink="http://www.w3.org/1999/xlink" width="1387.807" height="525.604" viewBox="0 0 1387.807 525.604">
  <defs>
    <linearGradient id="linear-gradient" x2="1" y2="1" gradientUnits="objectBoundingBox">
      <stop offset="0" stop-color="#034ea2"/>
      <stop offset="0.067" stop-color="#303a99"/>
      <stop offset="0.226" stop-color="#5e2390"/>
      <stop offset="0.485" stop-color="#8b0d88"/>
      <stop offset="0.778" stop-color="#c00384"/>
      <stop offset="1" stop-color="#f10080"/>
      <stop offset="1" stop-color="#06316b"/>
    </linearGradient>
  </defs>
  <g id="Grupo_5" data-name="Grupo 5" transform="translate(-305.193 -266.942)">
    <g id="surface1" transform="translate(304.039 266.942)">
      <path id="Subtração_1" data-name="Subtração 1" d="M1083.961,258.661h0a112.555,112.555,0,0,1-17.667-5.437,133.629,133.629,0,0,1-16.77-8.138,193.29,193.29,0,0,1-31.3-22.769c-20.024-17.529-38.739-39.245-56.837-60.246-7.4-8.584-15.047-17.461-22.591-25.812-8.447-9.351-15.917-17.1-22.836-23.686a215.43,215.43,0,0,0-23.6-19.748,142.016,142.016,0,0,0-12.245-7.831,111.614,111.614,0,0,0-12.628-6.167,186.853,186.853,0,0,0-29.874-9.6,118.672,118.672,0,0,0-25.641-3.006c-48.321,0-74.395,35.739-102,73.576-14.6,20.007-29.687,40.691-48.8,57.232a150.3,150.3,0,0,1-15.14,11.554,130.551,130.551,0,0,1-16.977,9.548,126.111,126.111,0,0,1-19.144,7.089,136.417,136.417,0,0,1-21.642,4.179,277.815,277.815,0,0,1-28.984,1.591,220.37,220.37,0,0,1-25.791-1.468,186.967,186.967,0,0,1-22.94-4.153A172.383,172.383,0,0,1,471.6,210.543c-5.631-2.949-11.138-6.19-16.834-9.909-5.074-3.313-10.181-6.931-15.613-11.061-10.1-7.675-19.806-16-29.2-24.045-12.471-10.687-25.366-21.739-39.325-31.416a210.7,210.7,0,0,0-22.053-13.472,174.4,174.4,0,0,0-24.919-10.787c-23.16-8.018-45.171-11.915-67.291-11.915a194.743,194.743,0,0,0-26.82,1.876,244.422,244.422,0,0,0-25.507,4.971c-16.7,4.127-32.568,9.548-49.373,15.287l-.58.2-2.927,1c-17.616,6.008-34.941,11.756-53.207,16.04A281.306,281.306,0,0,1,68.974,142.6,246.47,246.47,0,0,1,37.561,144.6h-.022c-1.937,0-3.91-.024-5.864-.07-10.059-.244-19.921-.943-29.31-2.076a259.325,259.325,0,0,1-26.618-4.6,225.44,225.44,0,0,1-24.093-6.914A204.2,204.2,0,0,1-70.08,121.92a193.693,193.693,0,0,1-19.541-10.928,192.879,192.879,0,0,1-17.514-12.626,201.144,201.144,0,0,1-15.653-14.118c-4.8-4.8-9.493-9.985-13.959-15.4-4.263-5.173-8.445-10.718-12.431-16.483-3.781-5.469-7.506-11.309-11.07-17.357A371.247,371.247,0,0,1-178.968-1.507c-11.181-24.863-19.942-50.064-28.414-74.435-4.978-14.32-9.679-27.842-14.609-40.523a694.833,694.833,0,0,0-35.83-79.445c-6.819-12.75-14.05-25.061-21.493-36.591-7.742-11.993-16-23.581-24.533-34.442H1083.961ZM141.456-12.089c0,.472.776,1.624,2.3,3.426s2.483,2.717,2.836,2.717c1.529,0,4.391-2.345,8.508-6.971,3.841-4.233,6.227-7.374,7.09-9.335a26.275,26.275,0,0,0,2.067-10.694c0-1.177-.437-1.773-1.3-1.773a36.514,36.514,0,0,0-8.625,1.3c-4.274,1.1-6.441,2.429-6.441,3.958v6.2c-.157,1.882-1.28,4.258-3.338,7.061-2,2.727-3.044,4.109-3.1,4.109ZM702.092-78.026a25.832,25.832,0,0,0-11,2.349,27.844,27.844,0,0,0-9.143,7.045A31.883,31.883,0,0,0,676.1-58.81a32.89,32.89,0,0,0-1.95,11.388,35.073,35.073,0,0,0,2.038,12.282A26.635,26.635,0,0,0,682.3-25.59a26.471,26.471,0,0,0,9.542,6.137,35.1,35.1,0,0,0,12.319,2.046,32.188,32.188,0,0,0,12.363-2.3,28.63,28.63,0,0,0,9.911-6.913c.627-.667.945-1.124.945-1.359a35.738,35.738,0,0,0-2.068-4.283c-1.373-2.647-2.118-4.028-2.215-4.107a1.1,1.1,0,0,0-.621-.118l-.945.768-.945.768a29.353,29.353,0,0,1-8.183,4.52,26.9,26.9,0,0,1-8.951,1.507,16.868,16.868,0,0,1-10.162-3.486,15.718,15.718,0,0,1-3.914-4.047,12.053,12.053,0,0,1-1.817-4.815c22.581-1.686,34.885-2.858,36.572-3.486a5.76,5.76,0,0,0,2.836-2.2,6.616,6.616,0,0,0,.946-3.648A29.612,29.612,0,0,0,726.094-61.1a27.1,27.1,0,0,0-5.451-8.774,24.915,24.915,0,0,0-8.36-6.115A25.167,25.167,0,0,0,702.092-78.026Zm-172.481.473a29.085,29.085,0,0,0-11.58,2.23,25.621,25.621,0,0,0-9.1,6.691,29.1,29.1,0,0,0-5.627,9.7,36.607,36.607,0,0,0-1.876,11.979,31.72,31.72,0,0,0,1.861,10.915,31.03,31.03,0,0,0,5.583,9.468,26.671,26.671,0,0,0,8.759,6.868,24.452,24.452,0,0,0,10.561,2.289,20.589,20.589,0,0,0,9.335-2.363,34.984,34.984,0,0,0,6.5-4.313,15.425,15.425,0,0,1,3.19-2.3c.353,0,.731,1.391,1.122,4.135s.969,4.135,1.713,4.135a46.339,46.339,0,0,0,4.874-.384,46.639,46.639,0,0,1,4.9-.383,1.58,1.58,0,0,0,1.182-.406A1.735,1.735,0,0,0,561.4-20.6l-.059-.827c-.98-17.21-1.477-26.135-1.477-26.527a142.553,142.553,0,0,1,2.3-23.338,6.863,6.863,0,0,0,.177-1.063c0-.549-1.63-1.185-4.845-1.891a36.83,36.83,0,0,0-5.968-.887c-.666,0-1.222,1.252-1.654,3.722s-.769,3.722-1,3.722a.516.516,0,0,1-.355-.177c-1.409-1.488-2.463-2.641-3.131-3.427a23.48,23.48,0,0,0-7.312-4.7A22.834,22.834,0,0,0,529.611-77.553Zm75.4,12.348a15.349,15.349,0,0,1,5.376.827,7.114,7.114,0,0,1,3.368,2.481c1.293,1.843,1.949,5.043,1.949,9.512,0,1.559.02,3.935.06,7.061.039,3.185.059,5.495.059,7.061,0,1.976-.06,4.957-.177,8.862-.118,3.932-.177,6.894-.177,8.8,0,1.137.358,1.714,1.064,1.714,1.292,0,3.2.019,5.819.059,2.576.039,4.534.059,5.819.059.784,0,1.182-.437,1.182-1.3,0-2.655-.04-6.631-.118-11.816-.078-5.234-.118-9.21-.118-11.817,0-1.256.029-3.111.088-5.672.059-2.505.089-4.393.089-5.612,0-7.018-1.014-12.167-3.013-15.3a12.494,12.494,0,0,0-5.835-4.83,24.089,24.089,0,0,0-9.349-1.61A23.173,23.173,0,0,0,599.1-72.945c-3.339,2.4-6.062,4.424-8.094,6.027a38.121,38.121,0,0,1-1.359-7.385c-.079-.627-.238-.945-.473-.945-.2,0-2.433.348-6.647,1.034-4,.652-6.467,1.05-6.765,1.093-.51.157-.768.435-.768.827a2.853,2.853,0,0,0,.177.769,96.037,96.037,0,0,1,2.659,23.219c0,3.176-.05,7.907-.148,14.062-.1,6.21-.147,10.921-.147,14,0,.9.417,1.359,1.241,1.359,1.252,0,3.107.019,5.672.059,2.517.039,4.425.059,5.672.059.745,0,1.122-.5,1.122-1.477V-55.693c0-1.8,1.869-3.891,5.554-6.2C600.283-64.092,603.046-65.2,605.007-65.2ZM357.9-19.121c.623,0,1.547.06,2.748.177s2.1.177,2.688.177c.9,0,1.358-.775,1.358-2.3,0-2.478-.059-6.245-.176-11.2s-.177-8.706-.177-11.2c0-1.31.04-3.338.118-6.027.078-2.718.118-4.745.118-6.026,0-6.782-1.014-11.811-3.013-14.948a12.832,12.832,0,0,0-5.879-4.786,23.9,23.9,0,0,0-9.246-1.6,23.077,23.077,0,0,0-11.462,3.309,30.221,30.221,0,0,0-9.1,7.8,15.315,15.315,0,0,0-6.189-8.331c-2.872-1.843-6.614-2.777-11.122-2.777a21.773,21.773,0,0,0-10.044,2.6,35.168,35.168,0,0,0-6.971,4.785l-2.955,2.6c-.313,0-.681-1.4-1.093-4.165s-.858-4.166-1.329-4.166l-.472.059a57.243,57.243,0,0,0-5.849,1.3c-2.773.43-4.92.729-6.381.886-.353.079-.532.377-.532.887a5.839,5.839,0,0,0,.177,1.24,103.13,103.13,0,0,1,2.3,21.565c0,3.171-.019,7.876-.059,14.387-.039,6.39-.059,11.23-.059,14.387,0,1.059.4,1.6,1.182,1.6h10.989c.9,0,1.359-.577,1.359-1.714,0-1.909-.02-4.851-.059-8.744-.039-3.966-.059-6.845-.059-8.8V-55.4a5.5,5.5,0,0,1,1.418-3.471,16.6,16.6,0,0,1,4.254-3.442c3.411-2.078,6.392-3.131,8.862-3.131a12.516,12.516,0,0,1,5.3,1,7.113,7.113,0,0,1,3.264,3.013c1.058,1.882,1.595,5.083,1.595,9.512v14.239c0,1.869-.06,4.741-.177,8.537s-.177,6.67-.177,8.537c0,1.137.4,1.714,1.182,1.714.627,0,1.561-.04,2.777-.119s2.153-.118,2.777-.118c.7,0,1.745.06,3.1.177s2.4.177,3.1.177,1.063-.537,1.063-1.595c0-1.927-.079-4.849-.236-8.685-.157-3.852-.237-6.775-.237-8.686,0-8.107.08-13.772.237-16.838.117-2.391,1.807-4.856,5.022-7.326,3.1-2.352,5.919-3.545,8.39-3.545,3.921,0,6.684.835,8.213,2.481,1.333,1.529,2.168,4.352,2.481,8.39.078,1.14.118,6.746.118,16.662,0,1.8-.07,4.531-.207,8.123s-.206,6.311-.206,8.123c0,1.843.417,2.777,1.24,2.777.666,0,1.679-.04,3.013-.119S357.238-19.121,357.9-19.121Zm384.611-82.656c-.824,0-1.241.4-1.241,1.182,0,4.187.209,10.618.62,19.113s.621,14.934.621,19.172c0,4.666-.04,11.752-.119,21.063-.078,9.354-.118,16.42-.118,21,0,.9.358,1.359,1.064,1.359h11.284c.628,0,.946-.457.946-1.359,0-4.6-.08-11.664-.237-21-.156-9.3-.236-16.384-.236-21.063,0-10.474.437-23.176,1.3-37.753l.059-.768a.878.878,0,0,0-.193-.681,1.075,1.075,0,0,0-.811-.265c-.7,0-1.793.06-3.249.177s-2.556.177-3.308.177c-.714,0-1.787-.06-3.191-.177S743.21-101.777,742.511-101.777ZM435.842-19.357c2.045,0,5.156.079,9.246.236s7.216.237,9.247.237a32.388,32.388,0,0,0,14.623-3.294,34.623,34.623,0,0,0,11.728-9.881,43.664,43.664,0,0,0,7.09-13.235,49.456,49.456,0,0,0,2.363-15.48,46.5,46.5,0,0,0-3.722-18.315,40.118,40.118,0,0,0-4.771-8.434,33.6,33.6,0,0,0-6.4-6.514,34.452,34.452,0,0,0-12.658-5.8,73.7,73.7,0,0,0-17.887-1.935c-1.4,0-3.51.02-6.263.059s-4.815.059-6.144.059c-1.446,0-3.643-.02-6.529-.059s-5.087-.059-6.529-.059c-1.019,0-1.536.417-1.536,1.241,0,4.549.159,11.486.473,20.62.314,9.157.473,16.094.473,20.619,0,4.314-.169,10.874-.5,19.5s-.5,15.168-.5,19.438a1.309,1.309,0,0,0,1.477,1.477c1.835,0,4.648-.08,8.36-.237S433.993-19.357,435.842-19.357Zm-212.9.118c.7,0,1.8.06,3.25.177s2.549.177,3.249.177c1.137,0,1.714-.417,1.714-1.241,0-4.5-.169-11.363-.5-20.383s-.5-15.872-.5-20.383c0-4.39.159-11.069.472-19.851.314-8.8.473-15.48.473-19.852,0-.784-.517-1.182-1.536-1.182-.7,0-1.774.06-3.19.177s-2.478.177-3.191.177c-.792,0-1.965-.06-3.486-.177s-2.688-.177-3.427-.177c-.9,0-1.359.5-1.359,1.478,0,4.353.209,10.983.621,19.7s.62,15.358.62,19.7c0,4.5-.209,11.349-.62,20.353s-.621,15.823-.621,20.3c0,.9.5,1.359,1.477,1.359.7,0,1.794-.06,3.25-.177S222.2-19.239,222.943-19.239Zm-132.37,0c.7,0,1.767.06,3.161.177s2.441.177,3.1.177c1.176,0,1.772-.457,1.772-1.359,0-4.306-.219-10.875-.65-19.527s-.65-15.22-.65-19.527c0-4.541.2-11.468.59-20.589s.591-16.045.591-20.59c0-.863-.517-1.3-1.536-1.3-.7,0-1.773.06-3.191.177s-2.477.177-3.191.177c-.752,0-1.856-.06-3.279-.177s-2.541-.177-3.28-.177c-.9,0-1.358.4-1.358,1.182,0,3.3.109,8.33.325,14.948.216,6.644.325,11.674.325,14.948,0,1.451-.457,2.305-1.359,2.54-1.176.353-8.134.532-20.679.532-12.819,0-19.816-.179-20.8-.532-.823-.235-1.241-.911-1.241-2.009,0-3.378.149-8.517.444-15.272s.443-11.905.443-15.273c0-.706-.457-1.064-1.359-1.064-.7,0-1.813.06-3.309.177s-2.595.177-3.308.177c-.752,0-1.866-.06-3.309-.177s-2.549-.177-3.249-.177c-.98,0-1.477.437-1.477,1.3,0,4.56.209,11.488.62,20.59s.62,16.029.62,20.589c0,4.326-.209,10.9-.62,19.527s-.62,15.2-.62,19.527c0,.9.5,1.359,1.477,1.359.7,0,1.763-.06,3.161-.177s2.458-.177,3.161-.177c.742,0,1.875.06,3.368.177s2.629.177,3.368.177c.98,0,1.477-.656,1.477-1.95,0-3.459-.1-8.726-.3-15.656s-.3-12.191-.3-15.656c0-1.529.437-2.424,1.3-2.659,1.213-.314,8.091-.473,20.442-.473,12.39,0,19.268.159,20.443.473.9.235,1.359,1.129,1.359,2.659,0,3.538-.109,8.9-.325,15.952s-.325,12.417-.325,15.953a1.2,1.2,0,0,0,1.359,1.359c.739,0,1.882-.06,3.4-.177S89.83-19.239,90.572-19.239ZM646.548-74.658c-.824,0-1.241.338-1.241,1,0,3.053.229,7.7.68,13.826.451,6.107.679,10.758.679,13.825,0,2.772-.07,6.916-.207,12.318-.137,5.417-.206,9.542-.206,12.26,0,1.607.417,2.422,1.24,2.422h11.521c.706,0,1.064-.417,1.064-1.24,0-2.8-.06-7.124-.177-12.85s-.177-10.062-.177-12.909c0-3.058.189-7.7.562-13.8s.561-10.708.561-13.736c0-.745-.338-1.123-1-1.123a27.782,27.782,0,0,0-3.338.3,27.943,27.943,0,0,1-3.338.3,27.942,27.942,0,0,1-3.338-.3A27.669,27.669,0,0,0,646.548-74.658Zm-529.973,0c-.823,0-1.24.338-1.24,1,0,3.065.229,7.717.68,13.826s.679,10.764.679,13.825c0,2.76-.069,6.9-.206,12.318-.137,5.441-.207,9.565-.207,12.26,0,1.607.417,2.422,1.24,2.422h11.522c.705,0,1.063-.417,1.063-1.24,0-2.844-.06-7.167-.177-12.85-.118-5.716-.177-10.059-.177-12.909,0-3.061.189-7.7.561-13.8s.562-10.717.562-13.736c0-.745-.338-1.123-1-1.123a27.756,27.756,0,0,0-3.338.3,27.974,27.974,0,0,1-3.338.3,27.943,27.943,0,0,1-3.338-.3A27.7,27.7,0,0,0,116.575-74.658ZM252.9-101.777c-4,0-6.027.577-6.027,1.714v5.317a85.248,85.248,0,0,0,1.063,11.4c.863,6.116,1.877,9.356,3.013,9.631a10.783,10.783,0,0,0,2.423.236,9.254,9.254,0,0,0,2.3-.236,1.867,1.867,0,0,0,.827-1.064,71.43,71.43,0,0,0,2.718-18.139c0-5.527-.219-8.389-.65-8.508A27.187,27.187,0,0,0,252.9-101.777Zm400.261,4.846a8.506,8.506,0,0,0-5.672,2.008,6.744,6.744,0,0,0-2.541,5.377,6.929,6.929,0,0,0,2.053,5.451c1.363,1.206,3.435,1.817,6.159,1.817,2.685,0,4.728-.611,6.071-1.817a6.983,6.983,0,0,0,2.024-5.451,6.735,6.735,0,0,0-2.393-5.317A8.466,8.466,0,0,0,653.165-96.932Zm-529.972,0a8.507,8.507,0,0,0-5.673,2.008,6.746,6.746,0,0,0-2.54,5.377,6.929,6.929,0,0,0,2.053,5.451c1.362,1.206,3.435,1.817,6.16,1.817,2.685,0,4.727-.611,6.07-1.817a6.984,6.984,0,0,0,2.024-5.451,6.735,6.735,0,0,0-2.393-5.317A8.465,8.465,0,0,0,123.193-96.932ZM531.325-29.756a15.292,15.292,0,0,1-6.5-1.374,15.869,15.869,0,0,1-5.317-4.121,18.485,18.485,0,0,1-3.412-5.731,19.331,19.331,0,0,1-1.137-6.676,19.667,19.667,0,0,1,1.137-6.735,18.75,18.75,0,0,1,3.412-5.79,15.9,15.9,0,0,1,5.317-4.165,15.156,15.156,0,0,1,6.5-1.388,14.732,14.732,0,0,1,6.455,1.4,15.213,15.213,0,0,1,5.185,4.209,18.318,18.318,0,0,1,3.234,5.717,20.6,20.6,0,0,1,1.079,6.75,19.6,19.6,0,0,1-1.093,6.587,18.738,18.738,0,0,1-3.279,5.7,15.827,15.827,0,0,1-5.229,4.21A14.433,14.433,0,0,1,531.325-29.756ZM439.854-30.7a19.137,19.137,0,0,1-5.253-.824c-1.176-.431-1.772-1.027-1.772-1.772,0-2.965-.07-7.5-.207-13.47s-.207-10.5-.207-13.471c0-3.01.07-7.592.207-13.618s.207-10.614.207-13.619c0-.725.581-1.307,1.728-1.728a18.851,18.851,0,0,1,5.184-.813,1.272,1.272,0,0,0-.324.035c0,.056,2.871.083,8.773.083a29.729,29.729,0,0,1,11.373,2.083A24.463,24.463,0,0,1,468.4-81.57a26.87,26.87,0,0,1,5.451,9.217,35.088,35.088,0,0,1,1.817,11.58,37.851,37.851,0,0,1-1.847,12.038,31.4,31.4,0,0,1-5.539,10,20.719,20.719,0,0,1-8.922,6.557,33.551,33.551,0,0,1-10.812,1.418c-5.84,0-8.69.016-8.712.049,0,0,.007,0,.021,0ZM689.507-51.262c-1.411,0-2.127-.417-2.127-1.24a12.988,12.988,0,0,1,1.056-5.17,15.624,15.624,0,0,1,3.168-4.638,14.881,14.881,0,0,1,4.527-3.278,12.362,12.362,0,0,1,5.133-1.093,12.224,12.224,0,0,1,8.715,3.781,11.868,11.868,0,0,1,3.87,8.685c0,.471-1.153.868-3.427,1.182A148.956,148.956,0,0,1,689.507-51.262Z" transform="translate(305 266.942)" fill="url(#linear-gradient)"/>
    </g>
  </g>
</svg>
